<?xml version="1.0" encoding="UTF-8" standalone="no"?>
<!-- Generator: Adobe Illustrator 14.0.0, SVG Export Plug-In . SVG Version: 6.00 Build 43363)  -->

<svg
   xmlns:dc="http://purl.org/dc/elements/1.1/"
   xmlns:cc="http://creativecommons.org/ns#"
   xmlns:rdf="http://www.w3.org/1999/02/22-rdf-syntax-ns#"
   xmlns:svg="http://www.w3.org/2000/svg"
   xmlns="http://www.w3.org/2000/svg"
   xmlns:sodipodi="http://sodipodi.sourceforge.net/DTD/sodipodi-0.dtd"
   xmlns:inkscape="http://www.inkscape.org/namespaces/inkscape"
   version="1.1"
   id="Ebene_1"
   x="0px"
   y="0px"
   width="808.80267"
   height="340.63013"
   viewBox="0 0 570.01316 340.63013"
   enable-background="new 0 0 592 840"
   xml:space="preserve"
   inkscape:version="0.91 r13725"
   sodipodi:docname="orca-logo.svg"><metadata
     id="metadata25"><rdf:RDF><cc:Work
         rdf:about=""><dc:format>image/svg+xml</dc:format><dc:type
           rdf:resource="http://purl.org/dc/dcmitype/StillImage" /><dc:title></dc:title></cc:Work></rdf:RDF></metadata><defs
     id="defs23" /><sodipodi:namedview
     pagecolor="#ffffff"
     bordercolor="#666666"
     borderopacity="1"
     objecttolerance="10"
     gridtolerance="10"
     guidetolerance="10"
     inkscape:pageopacity="0"
     inkscape:pageshadow="2"
     inkscape:window-width="1680"
     inkscape:window-height="988"
     id="namedview21"
     showgrid="true"
     fit-margin-top="10"
     fit-margin-left="5"
     fit-margin-right="10"
     fit-margin-bottom="10"
     inkscape:showpageshadow="false"
     inkscape:zoom="0.56190476"
     inkscape:cx="321.72607"
     inkscape:cy="-262.50997"
     inkscape:window-x="-8"
     inkscape:window-y="-8"
     inkscape:window-maximized="1"
     inkscape:current-layer="Ebene_1" /><g
     id="g3353"
     transform="matrix(2.0310014,0,0,2.0310014,26.28513,-66.650923)"><path
       style="fill:#ffdf00"
       inkscape:connector-curvature="0"
       id="path3"
       d="m 161.15132,87.178458 c 0.013,0.094 -0.358,0.19 -0.344,0.284 0.127,0.822 0.44,2.281 0.87,3.848 0.033,0.122 0.299,-0.269 0.333,-0.147 3.905,6.224 10.622,10.506002 20.334,10.506002 10.61,0 18.248,-1.681002 25.622,-3.494002 l -0.84,7.874002 c 1.275,-0.291 2.166,-0.638 3.413,-0.943 l -1.088,10.455 c 0.421,-0.05 1.07,-0.143 1.489,-0.188 8.236,-15.875002 16.019,-32.092002 23.644,-48.412002 -16.781,0.383 -42.067,4.504 -73.433,20.217 z" /><path
       style="fill:#ffdf00"
       inkscape:connector-curvature="0"
       id="path5"
       d="m 137.42832,100.67546 c -5.029,3.216 -10.473,6.904 -15.733,10.73 1.468,2.894 2.939,5.722 4.418,8.438 l -4.439,0 c 0.145,0 2.903,5.154 2.831,5.154 l -20.328,0 c -21.541998,17.953 -44.534998,40.901 -68.573998,70.611 0,0 68.540998,-48.492 133.407998,-70.466 -14.917,-3.466 -26.264,-11.81 -31.583,-24.467 z" /><path
       inkscape:connector-curvature="0"
       id="path7"
       d="m -18.002678,56.695458 c 16.4329999,0 24.4559999,12.552 24.4559999,25.879 0,13.327 -8.023,25.749002 -24.4559999,25.749002 -16.433,0 -24.455,-12.422002 -24.455,-25.749002 0,-13.327 8.023,-25.879 24.455,-25.879 z m 0,70.520002 c 30.666,0 51.628,-16.045 51.628,-44.771002 0,-28.595 -20.962,-44.641 -51.628,-44.641 -30.666,0 -51.627,16.046 -51.627,44.641 0.001,28.726002 20.961,44.771002 51.627,44.771002 z" /><g
       transform="translate(-101.44068,-205.65254)"
       id="g9"><path
         style="fill:#ffdf00"
         inkscape:connector-curvature="0"
         id="path11"
         d="m 379.72,306.11 -27.225,0 -0.146,0.363 -6.897,16.48 0.299,0.101 c 9.691,2.773 18.084,7.8 24.63,15.657 2.854,3.425 4.418,2.612 5.494,-0.998 2.066,-6.929 4.898,-19.119 3.885,-31.242 l -0.04,-0.361 z" /><path
         style="fill:#ffdf00"
         inkscape:connector-curvature="0"
         id="path13"
         d="m 363.729,277.442 -0.247,-0.132 -4.659,10.997 15.568,0.05 c -2.483,-4.191 -5.937,-7.94 -10.662,-10.915 z" /></g><path
       inkscape:connector-curvature="0"
       id="path15"
       d="m 257.68232,82.562458 10.609,-24.714 0.259,0 9.316,24.714 -20.184,0 z m -16.691,42.959002 10.222,-24.844 31.83,0 9.316,24.844 28.854,0 c -12.162,-28.597002 -25.23,-57.969002 -35.971,-86.306002 l -32.607,0 c -13.457,28.984 -26.654,58.228 -41.405,86.306002 l 29.761,0 z" /><path
       inkscape:connector-curvature="0"
       id="path17"
       d="m 208.55232,125.21046 c -7.765,0.647 -18.374,1.942 -23.291,1.942 -30.666,0 -51.628,-16.044 -51.628,-44.771002 0,-28.596 20.962,-44.641 51.628,-44.641 7.505,0 15.397,1.036 22.902,2.329 l 2.071,20.056 c -6.729,-1.939 -13.457,-3.494 -20.444,-3.494 -20.962,0 -28.983,14.365 -28.983,25.88 0,13.327 7.893,25.749002 24.454,25.749002 10.61,0 18.245,-1.682 25.619,-3.491 l -2.328,20.441 z" /><path
       inkscape:connector-curvature="0"
       id="path19"
       d="m 47.211322,38.911458 46.063,0 c 22.772998,0 31.571998,9.188 31.571998,26.267 0,10.223 -6.987,17.599 -18.892,21.868 6.34,12.938 12.552,26.525002 18.892,38.171002 l -29.242998,0 c -5.952,-16.304 -11.904,-32.736002 -19.15,-48.394002 2.459,0.389 4.658,0.647 6.729,0.647 7.505,0 15.657,-2.847 15.657,-11.258 0,-9.187 -8.411,-9.187 -12.293,-9.187 l -13.327,0 0,68.190002 -26.008,0 0,-86.304002 z" /></g></svg>